<svg xmlns="http://www.w3.org/2000/svg" xmlns:xlink="http://www.w3.org/1999/xlink" zoomAndPan="magnify" preserveAspectRatio="xMidYMid meet" version="1.0" viewBox="4 111.29 343.75 120.71"><defs><g></g><clipPath id="eda89bacb8"><path d="M 4 111.289062 L 112 111.289062 L 112 232 L 4 232 Z M 4 111.289062 " clip-rule="nonzero"></path></clipPath></defs><g clip-path="url(#eda89bacb8)"><path fill="#1c300c" d="M 60.304688 213.390625 C 62.597656 212.855469 64.273438 211.953125 65.34375 210.667969 C 66.417969 209.402344 66.933594 207.796875 66.933594 205.867188 C 66.933594 204.195312 66.460938 202.652344 65.515625 201.195312 C 64.574219 199.757812 62.835938 198.171875 60.304688 196.480469 Z M 56.871094 164.375 C 54.941406 164.546875 53.375 165.0625 52.195312 165.960938 C 50.347656 167.375 49.40625 169.046875 49.40625 171.039062 C 49.40625 172.261719 49.832031 173.484375 50.691406 174.726562 C 51.550781 175.96875 53.609375 177.640625 56.847656 179.71875 L 56.847656 164.375 Z M 60.304688 181.929688 C 66.675781 186.042969 70.730469 189.109375 72.488281 191.164062 C 74.847656 193.929688 76.027344 197.1875 76.027344 200.917969 C 76.027344 205.011719 74.632812 208.460938 71.867188 211.289062 C 69.097656 214.121094 65.238281 215.75 60.304688 216.175781 L 60.304688 220.914062 L 56.871094 220.914062 L 56.871094 216.5 C 54.058594 216.457031 51.550781 216.21875 49.382812 215.8125 C 47.195312 215.40625 44.707031 214.65625 41.894531 213.5625 L 41.894531 200.636719 L 43.613281 200.636719 C 44.148438 203.574219 44.984375 205.953125 46.101562 207.753906 C 47.238281 209.574219 48.675781 210.945312 50.414062 211.867188 C 52.152344 212.789062 54.296875 213.347656 56.871094 213.582031 L 56.871094 194.230469 C 50.457031 189.945312 46.1875 186.601562 44.0625 184.179688 C 41.9375 181.757812 40.886719 178.96875 40.886719 175.753906 C 40.886719 172.285156 42.21875 169.238281 44.878906 166.582031 C 47.539062 163.925781 51.527344 162.273438 56.847656 161.609375 L 56.847656 159.722656 L 60.28125 159.722656 L 60.28125 161.609375 C 64.808594 161.929688 69.378906 163.324219 73.96875 165.789062 L 73.96875 177.320312 L 72.402344 177.320312 C 71.628906 174.707031 70.707031 172.582031 69.613281 170.890625 C 68.542969 169.21875 67.148438 167.78125 65.429688 166.582031 C 64.121094 165.703125 62.40625 164.976562 60.261719 164.394531 Z M 61.226562 147.871094 C 60.710938 148.042969 60.410156 148.195312 60.433594 148.277344 C 60.625 148.816406 61.484375 149.371094 62.234375 149.542969 L 62.277344 149.542969 C 62.210938 149.371094 62.105469 149.136719 61.933594 148.792969 C 61.761719 148.449219 61.527344 148.152344 61.269531 147.894531 Z M 68.96875 145.941406 C 68.691406 146.691406 68.777344 147.507812 69.484375 148.386719 C 71.800781 151.28125 84.523438 150.121094 90.875 158.972656 C 97.226562 167.824219 94.15625 185.550781 99.347656 196.714844 C 104.5625 207.882812 114.753906 223.097656 110.332031 226.550781 C 105.890625 230.023438 74.871094 228.863281 58.308594 228.863281 C 41.746094 228.863281 3.773438 235.015625 4.160156 227.515625 C 4.542969 220.011719 11.859375 213.648438 11.859375 208.460938 C 11.859375 203.253906 10.316406 189.988281 16.496094 180.941406 C 22.652344 171.898438 22.84375 162.660156 27.863281 159.382812 C 32.886719 156.101562 40.007812 153.039062 43.871094 150.53125 C 46.445312 148.859375 47.988281 147.957031 48.71875 146.863281 C 50.414062 146.734375 51.980469 146.585938 53.375 146.414062 L 53.265625 146.480469 C 51.441406 147.464844 49.554688 148.921875 47.773438 150.828125 C 46.078125 152.652344 44.085938 154.367188 42.089844 156.082031 C 37.410156 160.109375 32.777344 164.097656 31.554688 169.605469 C 36.511719 168.019531 36.1875 169.28125 37.777344 164.847656 C 38.742188 162.1875 40.15625 160.558594 43.460938 157.710938 C 45.5 155.953125 47.324219 153.808594 49.105469 151.902344 C 50.714844 150.1875 52.472656 148.792969 54.082031 147.9375 C 55.625 147.101562 57.0625 146.90625 58.328125 146.863281 C 58.738281 146.84375 59.292969 147.101562 59.636719 147.164062 C 58.652344 147.808594 58.113281 148.472656 58.351562 149.15625 C 58.757812 150.292969 60.304688 151.410156 61.589844 151.730469 C 62.0625 151.859375 62.535156 151.878906 62.964844 151.792969 C 63.5625 151.664062 64.058594 151.324219 64.316406 150.722656 C 64.617188 150.058594 64.550781 149.113281 63.90625 147.808594 C 63.800781 147.613281 63.691406 147.421875 63.585938 147.25 C 65.257812 146.777344 67.320312 146.328125 68.96875 145.941406 Z M 48.097656 140.90625 C 48.097656 140.90625 24.582031 123.011719 28.832031 121.273438 C 32.347656 119.839844 35.480469 120.652344 38.183594 121.296875 C 40.199219 121.980469 43.71875 123.804688 47.238281 128.710938 C 52.644531 136.214844 52.449219 138.507812 52.449219 138.507812 C 52.449219 138.507812 52.707031 128.15625 41.851562 120.117188 C 43.570312 117.246094 44.835938 111.566406 47.6875 113.558594 C 51.550781 116.257812 49.617188 116.066406 60.410156 112.59375 C 62.296875 111.996094 63.648438 111.738281 64.636719 111.738281 C 65.238281 112.636719 65.753906 113.945312 65.773438 115.125 C 65.816406 117.050781 65.28125 122.539062 64.722656 125.839844 C 64.164062 129.140625 63.15625 133.105469 63.15625 133.105469 C 63.15625 133.105469 66.074219 126.011719 66.546875 123.03125 C 67.019531 120.054688 67.984375 114.738281 67.984375 114.738281 C 68.113281 116.089844 67.984375 117.160156 71.203125 117.4375 C 74.417969 117.695312 71.78125 111.265625 77.746094 114.738281 C 83.710938 118.210938 89.308594 117.824219 87.183594 121.851562 C 85.0625 125.902344 74.65625 141.292969 73.109375 142.257812 C 72.746094 142.492188 72.210938 142.792969 71.652344 143.15625 C 70.878906 143.328125 65.902344 144.398438 62.234375 145.859375 C 61.203125 145.148438 59.917969 144.828125 58.480469 144.871094 C 57.492188 144.914062 56.421875 145.128906 55.304688 145.535156 C 53.117188 145.492188 50.992188 145.277344 49.234375 145.023438 L 49.234375 144.957031 C 49.253906 142.621094 48.097656 140.90625 48.097656 140.90625 Z M 48.097656 140.90625 " fill-opacity="1" fill-rule="evenodd"></path></g><g fill="#1c300c" fill-opacity="1"><g transform="translate(107.116649, 181.25534)"><g><path d="M 13.867188 -27.164062 C 6.152344 -27.164062 0 -21.011719 0 -13.367188 C 0 -5.652344 6.152344 0.496094 13.867188 0.496094 C 20.125 0.496094 25.671875 -3.804688 27.234375 -9.882812 L 26.84375 -9.882812 C 24.996094 -4.800781 20.410156 -1.066406 14.898438 -1.207031 C 9.28125 -1.386719 4.265625 -6.398438 4.265625 -13.367188 C 4.265625 -20.765625 9.636719 -25.847656 15.394531 -25.527344 C 20.621094 -25.246094 24.425781 -21.296875 25.742188 -16.746094 L 26.203125 -16.746094 L 26.203125 -22.863281 C 25.171875 -22.828125 23.714844 -23.820312 22.863281 -24.460938 C 19.980469 -26.417969 17.246094 -27.164062 13.867188 -27.164062 Z M 13.867188 -27.164062 "></path></g></g></g><g fill="#1c300c" fill-opacity="1"><g transform="translate(137.297086, 181.25534)"><g><path d="M 14.542969 -26.667969 L 10.132812 -26.667969 L 2.203125 -4.691406 C 1.636719 -3.128906 0.78125 -1.316406 0 0 L 4.65625 0 C 3.519531 -1.921875 3.199219 -3.378906 3.664062 -4.691406 C 4.300781 -6.433594 4.941406 -7.859375 6.613281 -8.816406 C 9.066406 -10.277344 12.871094 -10.238281 15.359375 -8.710938 C 16.816406 -7.785156 17.492188 -6.433594 18.132812 -4.621094 C 18.703125 -3.09375 19.304688 -1.246094 19.304688 0 L 24.710938 0 C 23.929688 -1.316406 23.039062 -3.128906 22.472656 -4.691406 Z M 16.285156 -9.777344 C 13.15625 -11.769531 8.605469 -11.769531 5.511719 -9.777344 L 10.878906 -24.605469 Z M 16.285156 -9.777344 "></path></g></g></g><g fill="#1c300c" fill-opacity="1"><g transform="translate(164.953599, 181.25534)"><g><path d="M 18.808594 -19.378906 L 19.128906 -19.378906 L 19.128906 -24.496094 C 18.738281 -24.320312 18.382812 -24.605469 17.957031 -24.886719 C 15.894531 -26.382812 13.191406 -27.164062 10.167969 -27.164062 C 7.75 -27.164062 5.085938 -26.558594 3.269531 -25.066406 C -0.105469 -22.257812 0.640625 -17.246094 4.375 -15.148438 C 6.792969 -13.832031 9.636719 -13.261719 12.230469 -12.230469 C 14.578125 -11.269531 17.03125 -9.777344 17.03125 -6.898438 C 17.03125 -3.734375 14.542969 -0.960938 10.59375 -0.960938 C 8.496094 -0.960938 6.613281 -1.457031 4.90625 -2.632812 C 1.421875 -5.050781 1.03125 -7.679688 1.03125 -11.660156 L 0.710938 -11.660156 L 0 -3.269531 C 0.496094 -3.414062 0.996094 -3.058594 1.28125 -2.808594 C 3.699219 -0.710938 7.644531 0.496094 10.453125 0.496094 C 13.085938 0.496094 15.894531 -0.25 18.027344 -1.882812 C 22.292969 -5.15625 22.507812 -11.058594 17.917969 -14.152344 C 14.933594 -16.175781 10.59375 -17.03125 7.539062 -18.347656 C 5.441406 -19.269531 4.976562 -21.402344 5.617188 -23.003906 C 6.507812 -25.066406 9.207031 -25.777344 10.914062 -25.742188 C 15.21875 -25.742188 18.632812 -23.75 18.808594 -19.378906 Z M 18.808594 -19.378906 "></path></g></g></g><g fill="#1c300c" fill-opacity="1"><g transform="translate(189.197488, 181.25534)"><g><path d="M 4.730469 -4.730469 L 4.730469 -11.519531 L 16.605469 -11.519531 L 16.605469 -4.730469 C 16.605469 -2.914062 16.460938 -1.351562 15.964844 0 L 21.332031 0 C 20.835938 -1.351562 20.691406 -2.914062 20.691406 -4.730469 C 20.691406 -7.644531 20.691406 -19.023438 20.691406 -21.9375 C 20.691406 -23.75 20.835938 -25.316406 21.332031 -26.667969 L 15.964844 -26.667969 C 16.460938 -25.316406 16.605469 -23.75 16.605469 -21.9375 L 16.605469 -12.90625 L 4.730469 -12.90625 L 4.730469 -21.9375 C 4.730469 -23.75 4.871094 -25.316406 5.367188 -26.667969 L 0 -26.667969 C 0.496094 -25.316406 0.640625 -23.75 0.640625 -21.9375 C 0.640625 -19.023438 0.640625 -7.644531 0.640625 -4.730469 C 0.640625 -2.914062 0.496094 -1.351562 0 0 L 5.367188 0 C 4.871094 -1.351562 4.730469 -2.914062 4.730469 -4.730469 Z M 4.730469 -4.730469 "></path></g></g></g><g fill="#1c300c" fill-opacity="1"><g transform="translate(213.476929, 181.25534)"><g></g></g></g><g fill="#1c300c" fill-opacity="1"><g transform="translate(225.741062, 181.25534)"><g><path d="M 18.808594 -19.378906 L 19.128906 -19.378906 L 19.128906 -24.496094 C 18.738281 -24.320312 18.382812 -24.605469 17.957031 -24.886719 C 15.894531 -26.382812 13.191406 -27.164062 10.167969 -27.164062 C 7.75 -27.164062 5.085938 -26.558594 3.269531 -25.066406 C -0.105469 -22.257812 0.640625 -17.246094 4.375 -15.148438 C 6.792969 -13.832031 9.636719 -13.261719 12.230469 -12.230469 C 14.578125 -11.269531 17.03125 -9.777344 17.03125 -6.898438 C 17.03125 -3.734375 14.542969 -0.960938 10.59375 -0.960938 C 8.496094 -0.960938 6.613281 -1.457031 4.90625 -2.632812 C 1.421875 -5.050781 1.03125 -7.679688 1.03125 -11.660156 L 0.710938 -11.660156 L 0 -3.269531 C 0.496094 -3.414062 0.996094 -3.058594 1.28125 -2.808594 C 3.699219 -0.710938 7.644531 0.496094 10.453125 0.496094 C 13.085938 0.496094 15.894531 -0.25 18.027344 -1.882812 C 22.292969 -5.15625 22.507812 -11.058594 17.917969 -14.152344 C 14.933594 -16.175781 10.59375 -17.03125 7.539062 -18.347656 C 5.441406 -19.269531 4.976562 -21.402344 5.617188 -23.003906 C 6.507812 -25.066406 9.207031 -25.777344 10.914062 -25.742188 C 15.21875 -25.742188 18.632812 -23.75 18.808594 -19.378906 Z M 18.808594 -19.378906 "></path></g></g></g><g fill="#1c300c" fill-opacity="1"><g transform="translate(249.984951, 181.25534)"><g><path d="M 12.835938 -4.730469 C 12.835938 -11.554688 12.835938 -18.417969 12.835938 -25.28125 L 16.53125 -25.28125 C 19.734375 -25.28125 20.941406 -23.359375 21.226562 -22.613281 L 21.546875 -22.613281 L 21.296875 -26.667969 L 0.25 -26.667969 L 0 -22.613281 L 0.320312 -22.613281 C 0.605469 -23.359375 1.8125 -25.28125 4.976562 -25.28125 L 8.710938 -25.28125 C 8.710938 -18.417969 8.710938 -11.554688 8.710938 -4.730469 C 8.710938 -2.914062 8.605469 -1.351562 8.070312 0 L 13.441406 0 C 12.941406 -1.351562 12.835938 -2.914062 12.835938 -4.730469 Z M 12.835938 -4.730469 "></path></g></g></g><g fill="#1c300c" fill-opacity="1"><g transform="translate(274.513227, 181.25534)"><g><path d="M 14.542969 -26.667969 L 10.132812 -26.667969 L 2.203125 -4.691406 C 1.636719 -3.128906 0.78125 -1.316406 0 0 L 4.65625 0 C 3.519531 -1.921875 3.199219 -3.378906 3.664062 -4.691406 C 4.300781 -6.433594 4.941406 -7.859375 6.613281 -8.816406 C 9.066406 -10.277344 12.871094 -10.238281 15.359375 -8.710938 C 16.816406 -7.785156 17.492188 -6.433594 18.132812 -4.621094 C 18.703125 -3.09375 19.304688 -1.246094 19.304688 0 L 24.710938 0 C 23.929688 -1.316406 23.039062 -3.128906 22.472656 -4.691406 Z M 16.285156 -9.777344 C 13.15625 -11.769531 8.605469 -11.769531 5.511719 -9.777344 L 10.878906 -24.605469 Z M 16.285156 -9.777344 "></path></g></g></g><g fill="#1c300c" fill-opacity="1"><g transform="translate(302.169741, 181.25534)"><g><path d="M 18.808594 -19.378906 L 19.128906 -19.378906 L 19.128906 -24.496094 C 18.738281 -24.320312 18.382812 -24.605469 17.957031 -24.886719 C 15.894531 -26.382812 13.191406 -27.164062 10.167969 -27.164062 C 7.75 -27.164062 5.085938 -26.558594 3.269531 -25.066406 C -0.105469 -22.257812 0.640625 -17.246094 4.375 -15.148438 C 6.792969 -13.832031 9.636719 -13.261719 12.230469 -12.230469 C 14.578125 -11.269531 17.03125 -9.777344 17.03125 -6.898438 C 17.03125 -3.734375 14.542969 -0.960938 10.59375 -0.960938 C 8.496094 -0.960938 6.613281 -1.457031 4.90625 -2.632812 C 1.421875 -5.050781 1.03125 -7.679688 1.03125 -11.660156 L 0.710938 -11.660156 L 0 -3.269531 C 0.496094 -3.414062 0.996094 -3.058594 1.28125 -2.808594 C 3.699219 -0.710938 7.644531 0.496094 10.453125 0.496094 C 13.085938 0.496094 15.894531 -0.25 18.027344 -1.882812 C 22.292969 -5.15625 22.507812 -11.058594 17.917969 -14.152344 C 14.933594 -16.175781 10.59375 -17.03125 7.539062 -18.347656 C 5.441406 -19.269531 4.976562 -21.402344 5.617188 -23.003906 C 6.507812 -25.066406 9.207031 -25.777344 10.914062 -25.742188 C 15.21875 -25.742188 18.632812 -23.75 18.808594 -19.378906 Z M 18.808594 -19.378906 "></path></g></g></g><g fill="#1c300c" fill-opacity="1"><g transform="translate(326.413641, 181.25534)"><g><path d="M 4.730469 -4.730469 L 4.730469 -11.519531 L 16.605469 -11.519531 L 16.605469 -4.730469 C 16.605469 -2.914062 16.460938 -1.351562 15.964844 0 L 21.332031 0 C 20.835938 -1.351562 20.691406 -2.914062 20.691406 -4.730469 C 20.691406 -7.644531 20.691406 -19.023438 20.691406 -21.9375 C 20.691406 -23.75 20.835938 -25.316406 21.332031 -26.667969 L 15.964844 -26.667969 C 16.460938 -25.316406 16.605469 -23.75 16.605469 -21.9375 L 16.605469 -12.90625 L 4.730469 -12.90625 L 4.730469 -21.9375 C 4.730469 -23.75 4.871094 -25.316406 5.367188 -26.667969 L 0 -26.667969 C 0.496094 -25.316406 0.640625 -23.75 0.640625 -21.9375 C 0.640625 -19.023438 0.640625 -7.644531 0.640625 -4.730469 C 0.640625 -2.914062 0.496094 -1.351562 0 0 L 5.367188 0 C 4.871094 -1.351562 4.730469 -2.914062 4.730469 -4.730469 Z M 4.730469 -4.730469 "></path></g></g></g><g fill="#1c300c" fill-opacity="1"><g transform="translate(128.06335, 209.053086)"><g><path d="M 0.617188 0 L 1.3125 0 L 1.3125 -3 L 3.414062 -3 C 4.796875 -3 5.738281 -3.597656 5.738281 -5.113281 C 5.738281 -6.628906 4.796875 -7.222656 3.414062 -7.222656 L 0.617188 -7.222656 Z M 1.3125 -3.578125 L 1.3125 -6.636719 L 3.394531 -6.636719 C 4.40625 -6.636719 5.042969 -6.183594 5.042969 -5.113281 C 5.042969 -4.03125 4.40625 -3.578125 3.394531 -3.578125 Z M 1.3125 -3.578125 "></path></g></g></g><g fill="#1c300c" fill-opacity="1"><g transform="translate(142.095691, 209.053086)"><g><path d="M 0.617188 0 L 5.636719 0 L 5.636719 -0.585938 L 1.3125 -0.585938 L 1.3125 -3.515625 L 5.152344 -3.515625 L 5.152344 -4.101562 L 1.3125 -4.101562 L 1.3125 -6.636719 L 5.546875 -6.636719 L 5.546875 -7.222656 L 0.617188 -7.222656 Z M 0.617188 0 "></path></g></g></g><g fill="#1c300c" fill-opacity="1"><g transform="translate(156.178542, 209.053086)"><g><path d="M 0.617188 0 L 1.3125 0 L 1.3125 -3.019531 L 3.515625 -3.019531 C 5.457031 -3.019531 4.878906 -0.304688 5.253906 0 L 5.992188 0 L 5.992188 -0.0703125 C 5.578125 -0.191406 6.121094 -3.082031 4.304688 -3.324219 L 4.304688 -3.34375 C 5.261719 -3.527344 5.871094 -4.164062 5.871094 -5.183594 C 5.871094 -6.566406 4.96875 -7.222656 3.585938 -7.222656 L 0.617188 -7.222656 Z M 1.3125 -3.597656 L 1.3125 -6.636719 L 3.355469 -6.636719 C 4.535156 -6.636719 5.171875 -6.191406 5.171875 -5.121094 C 5.171875 -4.101562 4.425781 -3.597656 3.355469 -3.597656 Z M 1.3125 -3.597656 "></path></g></g></g><g fill="#1c300c" fill-opacity="1"><g transform="translate(170.544263, 209.053086)"><g><path d="M 3.210938 0.121094 C 4.820312 0.121094 5.75 -0.777344 5.75 -1.949219 C 5.75 -3.304688 4.769531 -3.777344 3.183594 -4.089844 C 1.917969 -4.332031 1.160156 -4.566406 1.160156 -5.527344 C 1.160156 -6.304688 1.867188 -6.769531 2.890625 -6.769531 C 4.089844 -6.769531 4.71875 -6.164062 4.820312 -5.222656 L 5.515625 -5.222656 C 5.433594 -6.578125 4.382812 -7.34375 2.890625 -7.34375 C 1.515625 -7.34375 0.464844 -6.75 0.464844 -5.496094 C 0.464844 -4.273438 1.355469 -3.796875 2.707031 -3.535156 C 4.210938 -3.253906 5.050781 -2.96875 5.050781 -1.910156 C 5.042969 -1.121094 4.433594 -0.464844 3.210938 -0.464844 C 1.878906 -0.464844 0.96875 -1.101562 0.898438 -2.332031 L 0.203125 -2.332031 C 0.273438 -0.695312 1.554688 0.121094 3.210938 0.121094 Z M 3.210938 0.121094 "></path></g></g></g><g fill="#1c300c" fill-opacity="1"><g transform="translate(184.69783, 209.053086)"><g><path d="M 3.71875 0.121094 C 5.777344 0.121094 7.101562 -1.445312 7.101562 -3.617188 C 7.101562 -5.789062 5.777344 -7.34375 3.71875 -7.34375 C 1.65625 -7.34375 0.332031 -5.789062 0.332031 -3.617188 C 0.332031 -1.445312 1.65625 0.121094 3.71875 0.121094 Z M 3.71875 -0.464844 C 2.113281 -0.464844 1.03125 -1.757812 1.03125 -3.617188 C 1.03125 -5.476562 2.113281 -6.769531 3.71875 -6.769531 C 5.324219 -6.769531 6.40625 -5.476562 6.40625 -3.617188 C 6.40625 -1.757812 5.324219 -0.464844 3.71875 -0.464844 Z M 3.71875 -0.464844 "></path></g></g></g><g fill="#1c300c" fill-opacity="1"><g transform="translate(200.215235, 209.053086)"><g><path d="M 0.617188 0 L 1.3125 0 L 1.3125 -6.132812 L 1.332031 -6.132812 L 5.425781 0 L 6.183594 0 L 6.183594 -7.222656 L 5.484375 -7.222656 L 5.484375 -1.070312 L 5.464844 -1.070312 L 1.375 -7.222656 L 0.617188 -7.222656 Z M 0.617188 0 "></path></g></g></g><g fill="#1c300c" fill-opacity="1"><g transform="translate(215.096175, 209.053086)"><g><path d="M 0.0625 0 L 0.757812 0 L 1.585938 -2.222656 L 4.75 -2.222656 L 5.578125 0 L 6.273438 0 L 3.535156 -7.222656 L 2.789062 -7.222656 Z M 1.769531 -2.777344 L 3.152344 -6.527344 L 3.171875 -6.527344 L 4.566406 -2.777344 Z M 1.769531 -2.777344 "></path></g></g></g><g fill="#1c300c" fill-opacity="1"><g transform="translate(229.512402, 209.053086)"><g><path d="M 0.617188 0 L 5.222656 0 L 5.222656 -0.585938 L 1.3125 -0.585938 L 1.3125 -7.222656 L 0.617188 -7.222656 Z M 0.617188 0 "></path></g></g></g><g fill="#1c300c" fill-opacity="1"><g transform="translate(243.039621, 209.053086)"><g></g></g></g><g fill="#1c300c" fill-opacity="1"><g transform="translate(253.293621, 209.053086)"><g><path d="M 0.617188 0 L 1.3125 0 L 1.3125 -3.382812 L 4.828125 -3.382812 L 4.828125 -3.96875 L 1.3125 -3.96875 L 1.3125 -6.636719 L 5.445312 -6.636719 L 5.445312 -7.222656 L 0.617188 -7.222656 Z M 0.617188 0 "></path></g></g></g><g fill="#1c300c" fill-opacity="1"><g transform="translate(267.073404, 209.053086)"><g><path d="M 0.648438 0 L 1.34375 0 L 1.34375 -7.222656 L 0.648438 -7.222656 Z M 0.648438 0 "></path></g></g></g><g fill="#1c300c" fill-opacity="1"><g transform="translate(277.13546, 209.053086)"><g><path d="M 0.617188 0 L 1.3125 0 L 1.3125 -6.132812 L 1.332031 -6.132812 L 5.425781 0 L 6.183594 0 L 6.183594 -7.222656 L 5.484375 -7.222656 L 5.484375 -1.070312 L 5.464844 -1.070312 L 1.375 -7.222656 L 0.617188 -7.222656 Z M 0.617188 0 "></path></g></g></g><g fill="#1c300c" fill-opacity="1"><g transform="translate(292.016408, 209.053086)"><g><path d="M 0.0625 0 L 0.757812 0 L 1.585938 -2.222656 L 4.75 -2.222656 L 5.578125 0 L 6.273438 0 L 3.535156 -7.222656 L 2.789062 -7.222656 Z M 1.769531 -2.777344 L 3.152344 -6.527344 L 3.171875 -6.527344 L 4.566406 -2.777344 Z M 1.769531 -2.777344 "></path></g></g></g><g fill="#1c300c" fill-opacity="1"><g transform="translate(306.432642, 209.053086)"><g><path d="M 0.617188 0 L 1.3125 0 L 1.3125 -6.132812 L 1.332031 -6.132812 L 5.425781 0 L 6.183594 0 L 6.183594 -7.222656 L 5.484375 -7.222656 L 5.484375 -1.070312 L 5.464844 -1.070312 L 1.375 -7.222656 L 0.617188 -7.222656 Z M 0.617188 0 "></path></g></g></g><g fill="#1c300c" fill-opacity="1"><g transform="translate(321.313589, 209.053086)"><g><path d="M 3.667969 0.121094 C 5.304688 0.121094 6.425781 -0.96875 6.605469 -2.546875 L 5.910156 -2.546875 C 5.769531 -1.433594 4.980469 -0.464844 3.648438 -0.464844 C 1.960938 -0.464844 1.03125 -1.769531 1.03125 -3.605469 C 1.03125 -5.414062 1.941406 -6.769531 3.667969 -6.769531 C 4.878906 -6.769531 5.667969 -5.980469 5.828125 -4.949219 L 6.527344 -4.949219 C 6.3125 -6.355469 5.273438 -7.34375 3.6875 -7.34375 C 1.597656 -7.34375 0.332031 -5.789062 0.332031 -3.605469 C 0.332031 -1.394531 1.605469 0.121094 3.667969 0.121094 Z M 3.667969 0.121094 "></path></g></g></g><g fill="#1c300c" fill-opacity="1"><g transform="translate(336.275363, 209.053086)"><g><path d="M 0.617188 0 L 5.636719 0 L 5.636719 -0.585938 L 1.3125 -0.585938 L 1.3125 -3.515625 L 5.152344 -3.515625 L 5.152344 -4.101562 L 1.3125 -4.101562 L 1.3125 -6.636719 L 5.546875 -6.636719 L 5.546875 -7.222656 L 0.617188 -7.222656 Z M 0.617188 0 "></path></g></g></g></svg>